<svg width="100" height="100" viewBox="0 0 100 100" fill="none" xmlns="http://www.w3.org/2000/svg" style="width: 432px; height: 432px;"><style>
     .line-beehive1-a {animation:line-beehive1-a 2s linear infinite; transform-origin: 88px 82.5px;}
     .line-beehive1-b {animation:line-beehive1-b 2s linear infinite; transform-origin: 17px 24.5px;}
     .line-beehive1-c {animation:line-beehive1-c 2s linear infinite; transform-origin: 78.5px 17px;}
     @keyframes line-beehive1-a {
         0%{}
         100%{transform: rotate(360deg);}
     }
     @keyframes line-beehive1-b {
         0%{}
         100%{transform: rotate(-360deg);}
     }
     @keyframes line-beehive1-c {
         0%{}
         100%{transform: rotate(360deg);}
     }
     @media (prefers-reduced-motion: reduce) {
         .line-beehive1-a, .line-beehive1-b, .line-beehive1-c {
             animation: none;
         }
     }
    </style><path class="fill1" d="M36.9032 33.3046C36.9032 30.4051 39.2537 28.0546 42.1532 28.0546H50.4032H58.6532C61.5527 28.0546 63.9032 30.4051 63.9032 33.3046V33.3046C63.9032 36.2041 61.5527 38.5546 58.6532 38.5546H42.1532C39.2537 38.5546 36.9032 36.2041 36.9032 33.3046V33.3046Z" fill="rgba(206,206,91,1)" stroke-width="2px" style="animation-duration: 2s;"></path><path class="stroke1" d="M50.4032 28.0546H42.1532C39.2537 28.0546 36.9032 30.4051 36.9032 33.3046V33.3046C36.9032 36.2041 39.2537 38.5546 42.1532 38.5546H58.6532C61.5527 38.5546 63.9032 36.2041 63.9032 33.3046V33.3046C63.9032 30.4051 61.5527 28.0546 58.6532 28.0546H50.4032ZM50.4032 28.0546V12.0546" stroke="rgba(100,70,70,1)" stroke-width="2px" stroke-linecap="round" style="animation-duration: 2s;"></path><rect class="stroke1 fill1" x="29.9032" y="38.5546" width="41" height="10" rx="5" fill="rgba(206,206,91,1)" stroke="rgba(100,70,70,1)" stroke-width="2px" style="animation-duration: 2s;"></rect><rect class="stroke1 fill1" x="26.9032" y="48.5546" width="47" height="10" rx="5" fill="rgba(206,206,91,1)" stroke="rgba(100,70,70,1)" stroke-width="2px" style="animation-duration: 2s;"></rect><rect class="stroke1 fill1" x="26.9032" y="58.5546" width="47" height="10" rx="5" fill="rgba(206,206,91,1)" stroke="rgba(100,70,70,1)" stroke-width="2px" style="animation-duration: 2s;"></rect><rect class="stroke1 fill1" x="29.9032" y="68.5546" width="41" height="10" rx="5" fill="rgba(206,206,91,1)" stroke="rgba(100,70,70,1)" stroke-width="2px" style="animation-duration: 2s;"></rect><rect class="stroke1 fill1" x="36.9032" y="78.5546" width="27" height="10" rx="5" fill="rgba(206,206,91,1)" stroke="rgba(100,70,70,1)" stroke-width="2px" style="animation-duration: 2s;"></rect><path class="stroke1 fill1" d="M57.4032 58.5546V68.5546H43.9032V58.5546C43.9032 58.5546 43.4032 53.0546 50.4032 53.0546C57.4032 53.0546 57.4032 58.5546 57.4032 58.5546Z" fill="rgba(206,206,91,1)" stroke="rgba(100,70,70,1)" stroke-width="2px" style="animation-duration: 2s;"></path><g class="line-beehive1-c" style="animation-duration: 2s;"><path class="fill2" d="M71.2716 13.3077C72.7586 11.8208 75.1693 11.8208 76.6563 13.3077V13.3077C78.1432 14.7946 78.1432 17.2054 76.6563 18.6923L75.8486 19.5L75.0409 20.3077C73.554 21.7946 71.1432 21.7946 69.6563 20.3077V20.3077C68.1693 18.8208 68.1693 16.41 69.6563 14.9231L70.464 14.1154L71.2716 13.3077Z" fill="rgba(225,226,58,1)" stroke-width="2px"></path><path class="stroke2" d="M70.464 14.1154L69.6563 14.9231C68.1693 16.41 68.1693 18.8208 69.6563 20.3077V20.3077C71.1432 21.7946 73.554 21.7946 75.0409 20.3077L75.8486 19.5M70.464 14.1154L71.2716 13.3077C72.7586 11.8208 75.1693 11.8208 76.6563 13.3077V13.3077C78.1432 14.7946 78.1432 17.2054 76.6563 18.6923L75.8486 19.5M70.464 14.1154L75.8486 19.5M70.464 14.1154L68.8486 12.5M75.8486 19.5L77.464 21.1154" stroke="rgba(0,0,0,1)" stroke-width="2px" stroke-linecap="round"></path></g><g class="line-beehive1-b" style="animation-duration: 2s;"><path class="fill2" d="M13.5 32.7764C11.9467 31.2231 11.9467 28.7047 13.5 27.1514V27.1514C15.0533 25.5981 17.5717 25.5981 19.125 27.1514L19.9687 27.9952L20.8125 28.8389C22.3658 30.3922 22.3658 32.9106 20.8125 34.4639V34.4639C19.2592 36.0172 16.7408 36.0172 15.1875 34.4639L14.3437 33.6202L13.5 32.7764Z" fill="rgba(225,226,58,1)" stroke-width="2px"></path><path class="stroke2" d="M14.3437 33.6202L15.1875 34.4639C16.7408 36.0172 19.2592 36.0172 20.8125 34.4639V34.4639C22.3658 32.9106 22.3658 30.3922 20.8125 28.8389L19.9687 27.9952M14.3437 33.6202L13.5 32.7764C11.9467 31.2231 11.9467 28.7047 13.5 27.1514V27.1514C15.0533 25.5981 17.5717 25.5981 19.125 27.1514L19.9687 27.9952M14.3437 33.6202L19.9687 27.9952M14.3437 33.6202L12.6562 35.3077M19.9687 27.9952L21.6562 26.3077" stroke="rgba(0,0,0,1)" stroke-width="2px" stroke-linecap="round"></path></g><g class="line-beehive1-a" style="animation-duration: 2s;"><path class="fill2" d="M79.5 85.7764C77.9467 84.2231 77.9467 81.7047 79.5 80.1514V80.1514C81.0533 78.5981 83.5717 78.5981 85.125 80.1514L85.9687 80.9952L86.8125 81.8389C88.3658 83.3922 88.3658 85.9106 86.8125 87.4639V87.4639C85.2592 89.0172 82.7408 89.0172 81.1875 87.4639L80.3437 86.6202L79.5 85.7764Z" fill="rgba(225,226,58,1)" stroke-width="2px"></path><path class="stroke2" d="M80.3437 86.6202L81.1875 87.4639C82.7408 89.0172 85.2592 89.0172 86.8125 87.4639V87.4639C88.3658 85.9106 88.3658 83.3922 86.8125 81.8389L85.9687 80.9952M80.3437 86.6202L79.5 85.7764C77.9467 84.2231 77.9467 81.7047 79.5 80.1514V80.1514C81.0533 78.5981 83.5717 78.5981 85.125 80.1514L85.9687 80.9952M80.3437 86.6202L85.9687 80.9952M80.3437 86.6202L78.6562 88.3077M85.9687 80.9952L87.6562 79.3077" stroke="rgba(0,0,0,1)" stroke-width="2px" stroke-linecap="round"></path></g></svg>